# xmcd
# 
# Track frame offsets:
#     150
#     13122
#     33332
#     50510
#     67785
#     89055
#     108917
#     123877
#     142542
#     163077
#     179767
#     198165
#     213202
#     231242
#     246217
#     262432
#     280247
#     295692
#     310447
#     329062
#     344532
# 
# Disc length: 4767
# 
# Revision: 2
# Processed by: cddbd v1.5.2PL0 Copyright (c) Steve Scherf et al.
# Submitted via: fre:ac v1.0.17
# 
DISCID=42129d15
DTITLE=Shania Twain - Up
DYEAR=2002
DGENRE=Country
TTITLE0=Up
TTITLE1=I'm Gonna Getcha Good
TTITLE2=She's not Just a P)retty Face
TTITLE3=Juanita
TTITLE4=Forever and Always
TTITLE5=Aint no Particular Way
TTITLE6=It Only Hurts When I'm Breathing
TTITLE7=Nah
TTITLE8=(Wanna Get To Know Tou) That Good!
TTITLE9=C'est la Vie
TTITLE10=I'm Jealous
TTITLE11=Ka-Ching
TTITLE12=Thank You Baby
TTITLE13=Waiter Bring Me Water
TTITLE14=What a Way To Wanna Be
TTITLE15=I Aint Goin Down
TTITLE16=I'm Not In The Mood (To Say No)
TTITLE17=In My Car ( I'll Be the Driver)
TTITLE18=When You Kiss Me
TTITLE19=no
TTITLE20=no
EXTD=
EXTT0=
EXTT1=
EXTT2=
EXTT3=
EXTT4=
EXTT5=
EXTT6=
EXTT7=
EXTT8=
EXTT9=
EXTT10=
EXTT11=
EXTT12=
EXTT13=
EXTT14=
EXTT15=
EXTT16=
EXTT17=
EXTT18=
EXTT19=Not prersent
EXTT20=Not Present
PLAYORDER=
